<?xml version="1.0" standalone="no"?>
<!DOCTYPE svg PUBLIC "-//W3C//DTD SVG 20010904//EN"
 "http://www.w3.org/TR/2001/REC-SVG-20010904/DTD/svg10.dtd">
<svg version="1.0" xmlns="http://www.w3.org/2000/svg"
 width="30.000000pt" height="30.000000pt" viewBox="0 0 500.000000 500.000000"
 preserveAspectRatio="xMidYMid meet">

<g transform="translate(0.000000,500.000000) scale(0.100000,-0.100000)"
fill="#000000" stroke="none">
<path d="M2570 4694 c-131 -20 -202 -47 -369 -141 -330 -188 -528 -240 -822
-214 -318 27 -539 -3 -696 -95 -104 -60 -211 -194 -228 -285 -9 -49 10 -153
55 -309 76 -263 78 -340 7 -418 -23 -25 -93 -78 -155 -119 -125 -81 -190 -141
-221 -200 -60 -119 -69 -317 -18 -427 39 -85 113 -170 266 -308 206 -186 307
-286 372 -366 149 -185 196 -397 165 -742 -19 -208 -20 -394 -2 -478 22 -99
70 -187 145 -261 158 -156 353 -222 600 -202 66 5 160 18 208 27 96 19 420
127 666 222 445 172 560 184 1022 102 434 -76 417 -74 635 -74 195 0 209 1
286 27 149 49 269 151 333 281 41 84 55 155 48 246 -8 103 -36 186 -129 390
-139 303 -158 371 -158 573 0 149 15 244 85 542 78 338 94 464 76 634 -14 135
-34 208 -81 306 -45 94 -117 177 -207 241 -111 80 -185 102 -538 159 -135 22
-209 43 -280 78 -145 71 -209 145 -316 360 -77 157 -120 219 -187 275 -142
118 -401 199 -562 176z m242 -1457 c270 -71 450 -245 518 -503 23 -87 39 -269
40 -441 l0 -113 -550 0 -550 0 0 -28 c0 -60 32 -126 89 -182 80 -79 149 -101
321 -101 185 1 343 34 507 106 31 14 57 25 59 25 2 0 4 -101 4 -226 l0 -225
-54 -24 c-179 -79 -296 -99 -581 -99 -199 0 -242 3 -321 21 -339 80 -548 281
-631 609 -14 56 -18 111 -17 289 0 206 2 226 27 319 67 250 208 428 412 521
147 67 256 85 475 80 127 -2 173 -8 252 -28z"/>
<path d="M2499 2839 c-101 -15 -174 -80 -204 -182 -28 -95 -50 -87 246 -87
243 0 260 1 256 18 -3 9 -8 35 -12 57 -21 129 -148 215 -286 194z"/>
</g>
</svg>
